<svg preserveAspectRatio="none" width="100%" height="100%" overflow="visible" style="display: block;" viewBox="0 0 51 20" fill="none" xmlns="http://www.w3.org/2000/svg">
<g id="Frame 40">
<g id="Vector">
<path d="M4.03646 9.74359C3.98785 9.61262 3.98785 9.46856 4.03646 9.33759C4.50995 8.1895 5.31368 7.20786 6.34574 6.51711C7.37781 5.82636 8.59174 5.45762 9.83363 5.45762C11.0755 5.45762 12.2894 5.82636 13.3215 6.51711C14.3536 7.20786 15.1573 8.1895 15.6308 9.33759C15.6794 9.46856 15.6794 9.61262 15.6308 9.74359C15.1573 10.8917 14.3536 11.8733 13.3215 12.5641C12.2894 13.2548 11.0755 13.6236 9.83363 13.6236C8.59174 13.6236 7.37781 13.2548 6.34574 12.5641C5.31368 11.8733 4.50995 10.8917 4.03646 9.74359Z" stroke="var(--stroke-0, #0A0A0A)" stroke-width="1.16667" stroke-linecap="round" stroke-linejoin="round"/>
<path d="M9.83362 11.2906C10.8001 11.2906 11.5836 10.5071 11.5836 9.54059C11.5836 8.57409 10.8001 7.79059 9.83362 7.79059C8.86712 7.79059 8.08362 8.57409 8.08362 9.54059C8.08362 10.5071 8.86712 11.2906 9.83362 11.2906Z" stroke="var(--stroke-0, #0A0A0A)" stroke-width="1.16667" stroke-linecap="round" stroke-linejoin="round"/>
</g>
<path id="Vector_2" d="M40.9173 4.58118H36.8339C36.5245 4.58118 36.2278 4.7041 36.009 4.92289C35.7902 5.14168 35.6673 5.43843 35.6673 5.74785V13.9145C35.6673 14.2239 35.7902 14.5207 36.009 14.7395C36.2278 14.9583 36.5245 15.0812 36.8339 15.0812H45.0006C45.31 15.0812 45.6068 14.9583 45.8255 14.7395C46.0443 14.5207 46.1673 14.2239 46.1673 13.9145V9.83118M44.636 4.36244C44.8681 4.13037 45.1828 4 45.511 4C45.8392 4 46.1539 4.13037 46.386 4.36244C46.6181 4.5945 46.7484 4.90925 46.7484 5.23744C46.7484 5.56563 46.6181 5.88037 46.386 6.11244L41.1284 11.3706C40.9899 11.509 40.8188 11.6103 40.6308 11.6652L38.9549 12.1552C38.9047 12.1698 38.8515 12.1707 38.8009 12.1577C38.7502 12.1448 38.704 12.1184 38.667 12.0814C38.63 12.0445 38.6037 11.9982 38.5907 11.9476C38.5777 11.8969 38.5786 11.8437 38.5932 11.7935L39.0832 10.1176C39.1384 9.9298 39.2399 9.75889 39.3784 9.6206L44.636 4.36244Z" stroke="var(--stroke-0, #0A0A0A)" stroke-width="1.16667" stroke-linecap="round" stroke-linejoin="round"/>
</g>
</svg>
