<svg preserveAspectRatio="none" width="100%" height="100%" overflow="visible" style="display: block;" viewBox="0 0 17 17" fill="none" xmlns="http://www.w3.org/2000/svg">
<path id="Icon (Stroke)" fill-rule="evenodd" clip-rule="evenodd" d="M7.74408 0.244078C8.06951 -0.0813593 8.59715 -0.0813593 8.92259 0.244078L16.4226 7.74408C16.748 8.06951 16.748 8.59715 16.4226 8.92259C16.0972 9.24803 15.5695 9.24803 15.2441 8.92259L15 8.67851V15C15 15.9205 14.2538 16.6667 13.3333 16.6667H3.33333C2.41286 16.6667 1.66667 15.9205 1.66667 15V8.67851L1.42259 8.92259C1.09715 9.24803 0.569515 9.24803 0.244078 8.92259C-0.0813593 8.59715 -0.0813593 8.06951 0.244078 7.74408L7.74408 0.244078ZM3.33333 7.01184V15H5.83333V11.6667C5.83333 10.7462 6.57953 10 7.5 10H9.16667C10.0871 10 10.8333 10.7462 10.8333 11.6667V15H13.3333V7.01184L8.33333 2.01184L3.33333 7.01184ZM9.16667 15V11.6667H7.5V15H9.16667Z" fill="var(--fill-0, #B0B0B0)"/>
</svg>
