<svg preserveAspectRatio="none" width="100%" height="100%" overflow="visible" style="display: block;" viewBox="0 0 14 14" fill="none" xmlns="http://www.w3.org/2000/svg">
<path id="Icon (Stroke)" fill-rule="evenodd" clip-rule="evenodd" d="M6.66667 1.33333C3.72115 1.33333 1.33333 3.72115 1.33333 6.66667C1.33333 9.61219 3.72115 12 6.66667 12C9.61219 12 12 9.61219 12 6.66667C12 3.72115 9.61219 1.33333 6.66667 1.33333ZM0 6.66667C0 2.98477 2.98477 0 6.66667 0C10.3486 0 13.3333 2.98477 13.3333 6.66667C13.3333 10.3486 10.3486 13.3333 6.66667 13.3333C2.98477 13.3333 0 10.3486 0 6.66667ZM6.66667 4C7.03486 4 7.33333 4.29848 7.33333 4.66667V6H8.66667C9.03486 6 9.33333 6.29848 9.33333 6.66667C9.33333 7.03486 9.03486 7.33333 8.66667 7.33333H7.33333V8.66667C7.33333 9.03486 7.03486 9.33333 6.66667 9.33333C6.29848 9.33333 6 9.03486 6 8.66667V7.33333H4.66667C4.29848 7.33333 4 7.03486 4 6.66667C4 6.29848 4.29848 6 4.66667 6H6V4.66667C6 4.29848 6.29848 4 6.66667 4Z" fill="var(--fill-0, #727272)"/>
</svg>
