<svg preserveAspectRatio="none" width="100%" height="100%" overflow="visible" style="display: block;" viewBox="0 0 10 10" fill="none" xmlns="http://www.w3.org/2000/svg">
<path id="Icon" fill-rule="evenodd" clip-rule="evenodd" d="M0.234315 0.234315C0.546734 -0.0781049 1.05327 -0.0781049 1.36569 0.234315L4.8 3.66863L8.23431 0.234315C8.54673 -0.0781049 9.05327 -0.0781049 9.36569 0.234315C9.67811 0.546734 9.67811 1.05327 9.36569 1.36569L5.93137 4.8L9.36569 8.23431C9.67811 8.54673 9.67811 9.05327 9.36569 9.36569C9.05327 9.67811 8.54673 9.67811 8.23431 9.36569L4.8 5.93137L1.36569 9.36569C1.05327 9.67811 0.546734 9.67811 0.234315 9.36569C-0.0781049 9.05327 -0.0781049 8.54673 0.234315 8.23431L3.66863 4.8L0.234315 1.36569C-0.0781049 1.05327 -0.0781049 0.546734 0.234315 0.234315Z" fill="var(--fill-0, #555555)"/>
</svg>
