<svg preserveAspectRatio="none" width="100%" height="100%" overflow="visible" style="display: block;" viewBox="0 0 40 40" fill="none" xmlns="http://www.w3.org/2000/svg">
<g id="LOGO">
<g id="Vector">
<path d="M24.4698 1.25897C21.3878 1.05193 18.3024 1.60817 15.4867 2.87841C12.671 4.14865 10.2121 6.09369 8.32769 8.54124C6.44329 10.9888 5.19158 13.8633 4.68345 16.9101C4.17532 19.957 4.42645 23.0821 5.4146 26.0087C6.40274 28.9353 8.09739 31.5731 10.3485 33.6883C12.5995 35.8036 15.3375 37.331 18.3199 38.1353C21.3022 38.9396 24.4369 38.996 27.4463 38.2995C30.4557 37.603 33.2468 36.175 35.5725 34.1421L23.2108 20L24.4698 1.25897Z" fill="url(#paint0_radial_6890_2064)"/>
<path d="M9.36931 27.4281L9.20125 27.127L20.2339 20.9688L20.402 21.2699L9.36931 27.4281Z" fill="var(--fill-0, #6BE6EF)"/>
<path d="M8.08488 20.4871L8.26048 20.1903L14.8657 24.0984L14.6901 24.3952L8.08488 20.4871Z" fill="var(--fill-0, #6BE6EF)"/>
<path d="M11.4074 26.2514L11.5856 25.9561L17.8943 29.763L17.7161 30.0582L11.4074 26.2514Z" fill="var(--fill-0, #6BE6EF)"/>
<path d="M23.724 12.3606C27.9431 12.644 31.1336 16.2941 30.8502 20.5132C30.5668 24.7323 26.9167 27.9228 22.6976 27.6394C18.4785 27.356 15.288 23.7059 15.5714 19.4868C15.8548 15.2677 19.5049 12.0772 23.724 12.3606Z" fill="#051617"/>
<path d="M8.21175 20.9649C8.63633 20.9934 9.00364 20.6724 9.03216 20.2478C9.06069 19.8232 8.73962 19.4559 8.31504 19.4274C7.89046 19.3989 7.52315 19.7199 7.49462 20.1445C7.4661 20.5691 7.78717 20.9364 8.21175 20.9649Z" fill="var(--fill-0, #6BE6EF)"/>
<path d="M17.7443 30.8338C18.1689 30.8623 18.5362 30.5412 18.5648 30.1166C18.5933 29.6921 18.2722 29.3247 17.8476 29.2962C17.4231 29.2677 17.0557 29.5888 17.0272 30.0133C16.9987 30.4379 17.3198 30.8052 17.7443 30.8338Z" fill="var(--fill-0, #6BE6EF)"/>
<path d="M9.15236 27.9015C9.57694 27.9301 9.94426 27.609 9.97278 27.1844C10.0013 26.7598 9.68023 26.3925 9.25565 26.364C8.83107 26.3355 8.46376 26.6566 8.43524 27.0811C8.40672 27.5057 8.72778 27.873 9.15236 27.9015Z" fill="var(--fill-0, #6BE6EF)"/>
</g>
</g>
<defs>
<radialGradient id="paint0_radial_6890_2064" cx="0" cy="0" r="1" gradientUnits="userSpaceOnUse" gradientTransform="translate(20 20) scale(20.1144 24.2617)">
<stop offset="0.497" stop-color="#387F84"/>
<stop offset="1" stop-color="#6BE6EF"/>
</radialGradient>
</defs>
</svg>
