<svg preserveAspectRatio="none" width="100%" height="100%" overflow="visible" style="display: block;" viewBox="0 0 18 14" fill="none" xmlns="http://www.w3.org/2000/svg">
<path id="Icon (Stroke)" fill-rule="evenodd" clip-rule="evenodd" d="M1.71169 6.66664C2.74145 9.58046 5.52071 11.6667 8.78517 11.6667C12.0496 11.6667 14.8289 9.58048 15.8586 6.66669C14.8289 3.75288 12.0496 1.66667 8.78516 1.66667C5.52071 1.66667 2.74146 3.75285 1.71169 6.66664ZM0.0382931 6.41693C1.20614 2.69868 4.6794 0 8.78516 0C12.8909 0 16.3642 2.69872 17.532 6.41699C17.5831 6.57955 17.5831 6.75385 17.532 6.91641C16.3642 10.6347 12.8909 13.3333 8.78517 13.3333C4.6794 13.3333 1.20612 10.6346 0.0382913 6.91634C-0.0127644 6.75379 -0.0127637 6.57948 0.0382931 6.41693ZM8.78479 5C7.86432 5 7.11812 5.74619 7.11812 6.66667C7.11812 7.58714 7.86432 8.33333 8.78479 8.33333C9.70526 8.33333 10.4515 7.58714 10.4515 6.66667C10.4515 5.74619 9.70526 5 8.78479 5ZM5.45146 6.66667C5.45146 4.82572 6.94384 3.33333 8.78479 3.33333C10.6257 3.33333 12.1181 4.82572 12.1181 6.66667C12.1181 8.50762 10.6257 10 8.78479 10C6.94384 10 5.45146 8.50762 5.45146 6.66667Z" fill="var(--fill-0, #B0B0B0)"/>
</svg>
