<svg preserveAspectRatio="none" width="100%" height="100%" overflow="visible" style="display: block;" viewBox="0 0 12 12" fill="none" xmlns="http://www.w3.org/2000/svg">
<path id="Icon (Stroke)" fill-rule="evenodd" clip-rule="evenodd" d="M5.83333 1.16667C3.256 1.16667 1.16667 3.256 1.16667 5.83333C1.16667 8.41066 3.256 10.5 5.83333 10.5C8.41066 10.5 10.5 8.41066 10.5 5.83333C10.5 3.256 8.41066 1.16667 5.83333 1.16667ZM0 5.83333C0 2.61167 2.61167 0 5.83333 0C9.05499 0 11.6667 2.61167 11.6667 5.83333C11.6667 9.05499 9.05499 11.6667 5.83333 11.6667C2.61167 11.6667 0 9.05499 0 5.83333ZM5.25 3.5C5.25 3.17783 5.51117 2.91667 5.83333 2.91667H5.83917C6.16133 2.91667 6.4225 3.17783 6.4225 3.5C6.4225 3.82217 6.16133 4.08333 5.83917 4.08333H5.83333C5.51117 4.08333 5.25 3.82217 5.25 3.5ZM4.66667 5.83333C4.66667 5.51117 4.92783 5.25 5.25 5.25H5.83333C6.1555 5.25 6.41667 5.51117 6.41667 5.83333V7.58333C6.73883 7.58333 7 7.8445 7 8.16667C7 8.48883 6.73883 8.75 6.41667 8.75H5.83333C5.51117 8.75 5.25 8.48883 5.25 8.16667V6.41667C4.92783 6.41667 4.66667 6.1555 4.66667 5.83333Z" fill="var(--fill-0, #B0B0B0)"/>
</svg>
