<svg preserveAspectRatio="none" width="100%" height="100%" overflow="visible" style="display: block;" viewBox="0 0 19 15" fill="none" xmlns="http://www.w3.org/2000/svg">
<path id="Vector" d="M9.1463 11.433C6.97833 11.433 5.22337 9.75496 5.06188 7.62843L2.06359 5.31125C1.66943 5.80573 1.30672 6.3285 1.01404 6.90015C0.948656 7.02949 0.91459 7.17238 0.91459 7.31731C0.91459 7.46223 0.948656 7.60513 1.01404 7.73447C2.56406 10.7588 5.63267 12.805 9.1463 12.805C9.91545 12.805 10.6575 12.6907 11.3726 12.506L9.88944 11.3584C9.6445 11.4057 9.39576 11.4307 9.1463 11.433ZM18.116 13.0937L14.9562 10.6516C15.9161 9.84268 16.7055 8.85098 17.2786 7.73418C17.3439 7.60484 17.378 7.46195 17.378 7.31702C17.378 7.1721 17.3439 7.0292 17.2786 6.89986C15.7285 3.87556 12.6599 1.82935 9.1463 1.82935C7.67474 1.83113 6.22707 2.2016 4.93554 2.9069L1.29929 0.0963976C1.25188 0.0594999 1.19765 0.0323075 1.13972 0.0163742C1.08179 0.000440821 1.02129 -0.00392108 0.961671 0.00353771C0.902054 0.0109965 0.844491 0.0301298 0.792271 0.0598442C0.740051 0.0895586 0.694198 0.129272 0.657333 0.176714L0.0962608 0.898991C0.0218319 0.994737 -0.0115193 1.11613 0.00354253 1.23646C0.0186043 1.35679 0.0808456 1.46622 0.176577 1.54067L16.9933 14.5379C17.0407 14.5748 17.0949 14.602 17.1529 14.618C17.2108 14.6339 17.2713 14.6382 17.3309 14.6308C17.3905 14.6233 17.4481 14.6042 17.5003 14.5745C17.5525 14.5448 17.5984 14.5051 17.6353 14.4576L18.1966 13.7353C18.271 13.6396 18.3043 13.5181 18.2892 13.3978C18.2741 13.2775 18.2118 13.1681 18.116 13.0937ZM12.8649 9.03497L11.7416 8.16663C11.8362 7.89323 11.8864 7.60644 11.8902 7.31716C11.8958 6.89365 11.802 6.47473 11.6163 6.09405C11.4306 5.71337 11.1582 5.38155 10.821 5.12524C10.4838 4.86893 10.0912 4.69528 9.67469 4.61823C9.25821 4.54117 8.82946 4.56287 8.42288 4.68158C8.59523 4.91513 8.68847 5.19763 8.68898 5.48789C8.68472 5.58448 8.66996 5.68032 8.64496 5.77372L6.54102 4.14766C7.27186 3.53692 8.19386 3.20201 9.1463 3.2013C9.68689 3.201 10.2222 3.30726 10.7217 3.51399C11.2212 3.72073 11.6751 4.02389 12.0573 4.40614C12.4396 4.78839 12.7427 5.24224 12.9495 5.74174C13.1562 6.24123 13.2625 6.77658 13.2622 7.31716C13.2622 7.9354 13.111 8.51162 12.8649 9.03525V9.03497Z" fill="var(--fill-0, #9EB0EA)"/>
</svg>
