<svg preserveAspectRatio="none" width="100%" height="100%" overflow="visible" style="display: block;" viewBox="0 0 486 486" fill="none" xmlns="http://www.w3.org/2000/svg">
<g id="LOGO">
<g id="Vector">
<path d="M297.308 15.2965C259.862 12.7809 222.373 19.5392 188.163 34.9727C153.953 50.4061 124.077 74.0384 101.181 103.776C78.2855 133.514 63.0773 168.439 56.9035 205.458C50.7298 242.477 53.781 280.448 65.7869 316.006C77.7929 351.564 98.3829 383.613 125.733 409.313C153.084 435.013 186.35 453.571 222.586 463.344C258.822 473.117 296.908 473.802 333.472 465.339C370.036 456.876 403.948 439.527 432.206 414.827L282.011 243L297.308 15.2965Z" fill="url(#paint0_radial_6884_2016)"/>
<path d="M113.837 333.252L111.795 329.593L245.842 254.77L247.884 258.429L113.837 333.252Z" fill="var(--fill-0, #6BE6EF)"/>
<path d="M98.2309 248.918L100.364 245.312L180.618 292.796L178.484 296.402L98.2309 248.918Z" fill="var(--fill-0, #6BE6EF)"/>
<path d="M138.6 318.954L140.764 315.367L217.415 361.62L215.251 365.208L138.6 318.954Z" fill="var(--fill-0, #6BE6EF)"/>
<path d="M288.246 150.181C339.508 153.625 378.273 197.973 374.829 249.235C371.386 300.498 327.038 339.262 275.776 335.819C224.513 332.375 185.749 288.027 189.192 236.765C192.636 185.502 236.984 146.738 288.246 150.181Z" fill="#051617"/>
<path d="M99.7724 254.724C104.931 255.07 109.394 251.169 109.74 246.011C110.087 240.852 106.186 236.389 101.027 236.043C95.8687 235.696 91.4058 239.597 91.0593 244.756C90.7127 249.914 94.6137 254.377 99.7724 254.724Z" fill="var(--fill-0, #6BE6EF)"/>
<path d="M215.593 374.63C220.752 374.977 225.215 371.076 225.561 365.917C225.908 360.758 222.007 356.296 216.848 355.949C211.69 355.603 207.227 359.504 206.88 364.662C206.534 369.821 210.435 374.284 215.593 374.63Z" fill="var(--fill-0, #6BE6EF)"/>
<path d="M111.201 339.004C116.359 339.35 120.822 335.449 121.169 330.291C121.515 325.132 117.614 320.669 112.456 320.323C107.297 319.976 102.834 323.877 102.488 329.036C102.141 334.194 106.042 338.657 111.201 339.004Z" fill="var(--fill-0, #6BE6EF)"/>
</g>
</g>
<defs>
<radialGradient id="paint0_radial_6884_2016" cx="0" cy="0" r="1" gradientUnits="userSpaceOnUse" gradientTransform="translate(243 243) scale(244.39 294.78)">
<stop offset="0.497" stop-color="#387F84"/>
<stop offset="1" stop-color="#6BE6EF"/>
</radialGradient>
</defs>
</svg>
