<svg preserveAspectRatio="none" width="100%" height="100%" overflow="visible" style="display: block;" viewBox="0 0 22 24" fill="none" xmlns="http://www.w3.org/2000/svg">
<g id="Group" filter="url(#filter0_d_6879_2021)">
<path id="Vector 15" d="M3.11223 15.2823C4.14805 16.1269 8.08548 19.233 9.92472 20.6805L19.1276 16.5571C19.174 16.3845 19.2829 15.9237 19.3467 15.4616C19.4264 14.8839 19.1475 12.5931 18.271 9.64504C17.3946 6.69695 16.3787 6.63719 15.6616 6.69695C15.0879 6.74475 14.4531 6.96918 14.2074 7.07542C13.9551 6.56415 13.4266 5.47787 13.331 5.2229C13.2114 4.90419 12.6935 3.98789 11.6776 4.48587C10.8649 4.88427 10.2102 5.14322 9.98448 5.2229L9.34705 4.32652L8.62995 4.18708L7.0563 4.82451C6.95671 4.45268 6.60612 3.46203 6.00057 2.47402C5.24362 1.239 4.16797 1.13941 3.53054 1.47804C2.89312 1.81667 1.93698 2.41426 2.35529 3.70903C2.68994 4.74485 4.92491 9.78449 6.00057 12.1748C5.56898 12.0155 4.47074 11.7924 3.53054 12.1748C2.35529 12.6529 1.81746 14.2266 3.11223 15.2823Z" fill="var(--fill-0, white)"/>
<path id="Vector" d="M18.5699 9.38771L17.8657 7.78594C17.8247 7.69271 17.7793 7.60044 17.7308 7.51192C17.4455 6.99031 16.9774 6.59761 16.4126 6.40615C15.8496 6.21524 15.2391 6.24077 14.6937 6.4779L14.3586 6.62363L13.7282 5.18974C13.5175 4.71036 13.132 4.3426 12.6429 4.15424C12.1561 3.96676 11.6267 3.98042 11.1515 4.19261L10.1979 4.60574C10.0319 4.35483 9.82716 4.16555 9.58633 4.04094C9.11329 3.79613 8.54092 3.81828 7.88497 4.10667L7.17674 4.41802L6.31467 2.45701C5.98448 1.70593 5.37275 1.19073 4.63636 1.04352C3.94511 0.905399 3.24179 1.10049 2.7546 1.56545C2.02041 2.2661 1.80946 3.3181 2.21677 4.24468L5.43048 11.601C4.46494 11.366 3.34231 11.5522 2.69074 12.1342C2.66429 12.1508 2.63943 12.1708 2.61676 12.1941C2.1861 12.6377 1.97371 13.1734 2.0026 13.7434C2.03889 14.4607 2.45143 15.1704 3.1955 15.7958C3.19877 15.7985 3.20207 15.8012 3.20542 15.8038L9.69912 20.9147C9.77063 20.9709 9.85764 21 9.94556 21C9.99983 21 10.0544 20.9889 10.1058 20.9663L19.4086 16.8767C19.545 16.8168 19.6366 16.6856 19.6459 16.5369L19.6965 15.7263C19.8316 13.5634 19.442 11.3716 18.5699 9.38771ZM18.9013 15.6766L18.8658 16.245L10.004 20.1407L3.70341 15.1818C3.1361 14.7036 2.82312 14.1923 2.79835 13.7031C2.78213 13.3825 2.89209 13.0851 3.12534 12.8177C3.14052 12.806 3.15502 12.7931 3.16877 12.779C3.75042 12.1799 5.19937 12.1369 5.95213 12.692L7.5686 14.2446C7.64581 14.3188 7.74525 14.3556 7.84453 14.3556C7.94919 14.3556 8.05368 14.3147 8.13189 14.2332C8.28431 14.0745 8.27921 13.8224 8.12053 13.6699L6.54115 12.153L2.94659 3.92485C2.61748 3.17627 2.91583 2.51303 3.3047 2.14185C3.59959 1.86034 4.04989 1.73891 4.48019 1.82485C4.96531 1.92182 5.35773 2.26021 5.58525 2.77768L8.30387 8.96187C8.36945 9.11114 8.51554 9.20003 8.66876 9.20003C8.7223 9.20003 8.77676 9.18919 8.82891 9.16624C9.03034 9.07768 9.12185 8.84263 9.03329 8.6412L7.49737 5.14739L8.20559 4.83605C8.63016 4.64936 8.9715 4.61992 9.22009 4.74856C9.39654 4.83987 9.54371 5.01743 9.65749 5.27623C9.65749 5.27627 9.65753 5.27631 9.65753 5.27631L11.2608 8.92342C11.3264 9.0727 11.4725 9.16158 11.6257 9.16158C11.6792 9.16158 11.7337 9.15074 11.7859 9.1278C11.9873 9.03923 12.0788 8.80418 11.9902 8.60276L10.5481 5.32232L11.4704 4.92278C11.4719 4.9221 11.4734 4.92142 11.475 4.92075C11.7554 4.79501 12.0685 4.78685 12.3565 4.89776C12.646 5.00927 12.8741 5.22683 12.9988 5.51036L14.9042 9.84466C14.9698 9.99394 15.1158 10.0828 15.2691 10.0828C15.3226 10.0828 15.3771 10.072 15.4292 10.049C15.6306 9.96048 15.7222 9.72542 15.6336 9.524L14.6792 7.35308L15.0114 7.20859C15.7692 6.87908 16.6377 7.17385 17.0318 7.89438C17.0694 7.96294 17.1045 8.03433 17.1362 8.10656L17.8404 9.70837C18.6616 11.5763 19.0284 13.6401 18.9013 15.6766Z" fill="var(--fill-0, black)"/>
<path id="Vector_2" d="M17.0198 15.6123L16.5578 15.8149C16.3563 15.9033 16.2646 16.1383 16.353 16.3398C16.4185 16.4892 16.5647 16.5782 16.718 16.5782C16.7715 16.5782 16.8258 16.5674 16.8779 16.5446L17.3398 16.342C17.5413 16.2536 17.633 16.0187 17.5447 15.8172C17.4562 15.6156 17.2212 15.524 17.0198 15.6123Z" fill="var(--fill-0, black)"/>
<path id="Vector_3" d="M15.1566 16.4397L10.2234 18.6033C10.0219 18.6917 9.93022 18.9267 10.0186 19.1282C10.0841 19.2776 10.2303 19.3666 10.3836 19.3666C10.4371 19.3666 10.4914 19.3558 10.5435 19.333L15.4766 17.1693C15.6781 17.081 15.7698 16.846 15.6814 16.6445C15.593 16.443 15.3579 16.3513 15.1566 16.4397Z" fill="var(--fill-0, black)"/>
</g>
<defs>
<filter id="filter0_d_6879_2021" x="0" y="6.85588e-10" width="21.7227" height="24" filterUnits="userSpaceOnUse" color-interpolation-filters="sRGB">
<feFlood flood-opacity="0" result="BackgroundImageFix"/>
<feColorMatrix in="SourceAlpha" type="matrix" values="0 0 0 0 0 0 0 0 0 0 0 0 0 0 0 0 0 0 127 0" result="hardAlpha"/>
<feOffset dy="1"/>
<feGaussianBlur stdDeviation="1"/>
<feColorMatrix type="matrix" values="0 0 0 0 0.4125 0 0 0 0 0.44 0 0 0 0 0.458333 0 0 0 0.15 0"/>
<feBlend mode="normal" in2="BackgroundImageFix" result="effect1_dropShadow_6879_2021"/>
<feBlend mode="normal" in="SourceGraphic" in2="effect1_dropShadow_6879_2021" result="shape"/>
</filter>
</defs>
</svg>
