<svg preserveAspectRatio="none" width="100%" height="100%" overflow="visible" style="display: block;" viewBox="0 0 18 17" fill="none" xmlns="http://www.w3.org/2000/svg">
<path id="Icon (Stroke)" fill-rule="evenodd" clip-rule="evenodd" d="M0.695534 0.244078C1.02097 -0.0813592 1.54861 -0.0813592 1.87405 0.244078L4.40762 2.77765C5.70893 2.06917 7.201 1.66667 8.78516 1.66667C12.8909 1.66667 16.3642 4.36538 17.532 8.08366C17.5831 8.24622 17.5831 8.42052 17.532 8.58307C16.9881 10.3149 15.9451 11.8238 14.5724 12.9425L16.874 15.2441C17.1995 15.5695 17.1995 16.0972 16.874 16.4226C16.5486 16.748 16.021 16.748 15.6955 16.4226L0.695534 1.42259C0.370097 1.09715 0.370097 0.569515 0.695534 0.244078ZM5.64849 4.01852L7.09161 5.46164C7.58781 5.16858 8.16697 5 8.78479 5C10.6257 5 12.1181 6.49238 12.1181 8.33333C12.1181 8.95115 11.9495 9.53032 11.6565 10.0265L13.3865 11.7565C14.5089 10.8832 15.3762 9.69828 15.8586 8.33335C14.8289 5.41954 12.0496 3.33333 8.78516 3.33333C7.66436 3.33333 6.6023 3.5787 5.64849 4.01852ZM10.3951 8.76517C10.4319 8.62751 10.4515 8.48279 10.4515 8.33333C10.4515 7.41286 9.70527 6.66667 8.78479 6.66667C8.63533 6.66667 8.49061 6.68622 8.35295 6.72299L10.3951 8.76517ZM2.63886 5.14482C3.00585 5.42255 3.07822 5.9452 2.80049 6.31219C2.33999 6.9207 1.97048 7.60112 1.71169 8.33331C2.74145 11.2471 5.52071 13.3333 8.78517 13.3333C9.2667 13.3333 9.73688 13.2881 10.1919 13.2018C10.6441 13.116 11.0802 13.4131 11.1659 13.8653C11.2517 14.3174 10.9546 14.7535 10.5024 14.8393C9.94555 14.9449 9.37141 15 8.78517 15C4.6794 15 1.20612 12.3013 0.0382913 8.58301C-0.0127644 8.42045 -0.0127637 8.24615 0.0382931 8.08359C0.356553 7.07031 0.845709 6.13335 1.47148 5.30644C1.74921 4.93945 2.27186 4.86709 2.63886 5.14482Z" fill="var(--fill-0, #B0B0B0)"/>
</svg>
