<svg preserveAspectRatio="none" width="100%" height="100%" overflow="visible" style="display: block;" viewBox="0 0 31 34" fill="none" xmlns="http://www.w3.org/2000/svg">
<g id="Group" filter="url(#filter0_d_6888_2042)">
<path id="Vector 15" d="M3.66835 22.4234C5.22208 23.6903 11.1282 28.3495 13.8871 30.5207L27.6913 24.3357C27.7611 24.0767 27.9244 23.3855 28.02 22.6923C28.1395 21.8258 27.7212 18.3897 26.4065 13.9676C25.0918 9.54542 23.568 9.45578 22.4923 9.54542C21.6318 9.61713 20.6797 9.95377 20.3111 10.1131C19.9327 9.34622 19.1399 7.7168 18.9965 7.33435C18.8172 6.85628 18.0403 5.48183 16.5165 6.22881C15.2974 6.8264 14.3154 7.21483 13.9767 7.33435L13.0206 5.98978L11.9449 5.78062L9.58446 6.73676C9.43506 6.17902 8.90919 4.69304 8.00086 3.21103C6.86544 1.35851 5.25196 1.20911 4.29582 1.71706C3.33968 2.22501 1.90547 3.12139 2.53294 5.06354C3.03491 6.61727 6.38737 14.1767 8.00086 17.7623C7.35347 17.5232 5.70612 17.1886 4.29582 17.7623C2.53294 18.4794 1.72619 20.8398 3.66835 22.4234Z" fill="var(--fill-0, white)"/>
<path id="Vector" d="M26.8548 13.5816L25.7985 11.1789C25.7371 11.0391 25.6689 10.9007 25.5962 10.7679C25.1683 9.98546 24.4661 9.39642 23.6189 9.10922C22.7743 8.82286 21.8587 8.86116 21.0406 9.21685L20.5379 9.43544L19.5923 7.28461C19.2762 6.56553 18.698 6.0139 17.9644 5.73136C17.2342 5.45014 16.44 5.47063 15.7273 5.78891L14.2969 6.40861C14.0478 6.03225 13.7407 5.74833 13.3795 5.56141C12.6699 5.19419 11.8114 5.22742 10.8274 5.66001L9.76512 6.12702L8.472 3.18552C7.97672 2.05889 7.05912 1.28609 5.95454 1.06528C4.91767 0.858099 3.86269 1.15074 3.1319 1.84818C2.03061 2.89916 1.71419 4.47715 2.32516 5.86701L7.14571 16.9015C5.6974 16.5489 4.01346 16.8284 3.03611 17.7013C2.99643 17.7262 2.95914 17.7562 2.92514 17.7911C2.27915 18.4565 1.96057 19.2601 2.0039 20.1151C2.05834 21.191 2.67714 22.2555 3.79325 23.1936C3.79815 23.1978 3.80311 23.2018 3.80813 23.2058L13.5487 30.872C13.6559 30.9564 13.7865 31 13.9183 31C13.9997 31 14.0816 30.9834 14.1588 30.9495L28.1129 24.8151C28.3176 24.7252 28.4549 24.5285 28.4688 24.3053L28.5448 23.0894C28.7473 19.8452 28.163 16.5574 26.8548 13.5816ZM27.3519 23.0149L27.2987 23.8675L14.0061 29.711L4.55512 22.2727C3.70415 21.5554 3.23469 20.7885 3.19752 20.0547C3.1732 19.5738 3.33813 19.1276 3.68802 18.7265C3.71078 18.709 3.73254 18.6897 3.75315 18.6685C4.62563 17.7698 6.79905 17.7054 7.92819 18.5381L10.3529 20.8669C10.4687 20.9781 10.6179 21.0335 10.7668 21.0335C10.9238 21.0335 11.0805 20.972 11.1978 20.8498C11.4265 20.6118 11.4188 20.2335 11.1808 20.0049L8.81173 17.7295L3.41988 5.38727C2.92621 4.2644 3.37375 3.26954 3.95705 2.71277C4.39938 2.29051 5.07484 2.10837 5.72029 2.23727C6.44797 2.38272 7.0366 2.89031 7.37788 3.66652L11.4558 12.9428C11.5542 13.1667 11.7733 13.3 12.0031 13.3C12.0835 13.3 12.1651 13.2838 12.2434 13.2494C12.5455 13.1165 12.6828 12.7639 12.5499 12.4618L10.2461 7.22109L11.3084 6.75407C11.9452 6.47404 12.4572 6.42988 12.8301 6.62284C13.0948 6.75981 13.3156 7.02615 13.4862 7.41434C13.4862 7.4144 13.4863 7.41446 13.4863 7.41446L15.8912 12.8851C15.9896 13.109 16.2087 13.2424 16.4386 13.2424C16.5189 13.2424 16.6006 13.2261 16.6788 13.1917C16.9809 13.0589 17.1182 12.7063 16.9853 12.4041L14.8222 7.48349L16.2056 6.88417C16.2079 6.88315 16.2102 6.88213 16.2125 6.88112C16.6331 6.69252 17.1027 6.68027 17.5348 6.84664C17.969 7.0139 18.3111 7.34024 18.4981 7.76555L21.3563 14.267C21.4547 14.4909 21.6738 14.6242 21.9036 14.6242C21.9839 14.6242 22.0656 14.608 22.1438 14.5736C22.446 14.4407 22.5832 14.0881 22.4504 13.786L21.0188 10.5296L21.5171 10.3129C22.6539 9.81862 23.9566 10.2608 24.5477 11.3416C24.604 11.4444 24.6567 11.5515 24.7044 11.6598L25.7607 14.0626C26.9924 16.8645 27.5426 19.9602 27.3519 23.0149Z" fill="var(--fill-0, black)"/>
<path id="Vector_2" d="M24.5297 22.9185L23.8368 23.2224C23.5345 23.3549 23.397 23.7074 23.5295 24.0097C23.6278 24.2338 23.8471 24.3674 24.0771 24.3674C24.1573 24.3674 24.2388 24.3511 24.3168 24.3169L25.0097 24.013C25.312 23.8805 25.4496 23.528 25.317 23.2257C25.1843 22.9234 24.8318 22.786 24.5297 22.9185Z" fill="var(--fill-0, black)"/>
<path id="Vector_3" d="M21.7348 24.1595L14.3352 27.405C14.0329 27.5375 13.8953 27.89 14.0279 28.1923C14.1262 28.4164 14.3454 28.55 14.5754 28.55C14.6556 28.55 14.7372 28.5337 14.8152 28.4995L22.2149 25.254C22.5171 25.1214 22.6547 24.769 22.5221 24.4667C22.3895 24.1645 22.0369 24.027 21.7348 24.1595Z" fill="var(--fill-0, black)"/>
</g>
<defs>
<filter id="filter0_d_6888_2042" x="-1.48926e-10" y="1.02838e-09" width="30.584" height="34" filterUnits="userSpaceOnUse" color-interpolation-filters="sRGB">
<feFlood flood-opacity="0" result="BackgroundImageFix"/>
<feColorMatrix in="SourceAlpha" type="matrix" values="0 0 0 0 0 0 0 0 0 0 0 0 0 0 0 0 0 0 127 0" result="hardAlpha"/>
<feOffset dy="1"/>
<feGaussianBlur stdDeviation="1"/>
<feColorMatrix type="matrix" values="0 0 0 0 0.4125 0 0 0 0 0.44 0 0 0 0 0.458333 0 0 0 0.15 0"/>
<feBlend mode="normal" in2="BackgroundImageFix" result="effect1_dropShadow_6888_2042"/>
<feBlend mode="normal" in="SourceGraphic" in2="effect1_dropShadow_6888_2042" result="shape"/>
</filter>
</defs>
</svg>
